<?xml version="1.0" encoding="iso-8859-1"?>
<!-- Uploaded to: SVG Repo, www.svgrepo.com, Generator: SVG Repo Mixer Tools -->
<svg version="1.1" id="Layer_1" xmlns="http://www.w3.org/2000/svg" xmlns:xlink="http://www.w3.org/1999/xlink" 
	 viewBox="0 0 392.598 392.598" xml:space="preserve">
<rect x="181.495" y="21.851" style="fill:#56ACE0;" width="29.608" height="47.903"/>
<path style="fill:#FFFFFF;" d="M346.925,127.547h-87.079v4.913c0,6.012-4.848,10.925-10.925,10.925H143.677
	c-6.012,0-10.925-4.848-10.925-10.925v-4.913H45.673c-13.123,0-23.855,10.667-23.855,23.855v195.556
	c0,13.123,10.667,23.855,23.855,23.855h301.253c13.123,0,23.855-10.667,23.855-23.855V151.467
	C370.78,138.279,360.048,127.547,346.925,127.547z"/>
<rect x="154.602" y="91.604" style="fill:#56ACE0;" width="83.394" height="29.996"/>
<path style="fill:#194F82;" d="M346.925,105.762h-87.079V80.743c0-6.012-4.848-10.925-10.925-10.925h-15.968V10.925
	C232.954,4.913,228.105,0,222.028,0h-51.394c-6.012,0-10.925,4.848-10.925,10.925v58.893h-15.968
	c-6.012,0-10.925,4.848-10.925,10.925v25.018H45.673c-25.212,0-45.64,20.493-45.64,45.64v195.556c0,25.212,20.493,45.64,45.64,45.64
	h301.253c25.212,0,45.64-20.493,45.64-45.64V151.467C392.566,126.255,372.073,105.762,346.925,105.762z M370.78,346.958
	c0,13.123-10.667,23.855-23.855,23.855H45.673c-13.123,0-23.855-10.667-23.855-23.855V151.467c0-13.123,10.667-23.855,23.855-23.855
	h87.079v4.913c0,6.012,4.848,10.925,10.925,10.925h105.18c6.012,0,10.925-4.848,10.925-10.925v-4.913h87.079
	c13.123,0,23.855,10.667,23.855,23.855v195.491H370.78z M181.495,21.851h29.608v47.903h-29.608V21.851z M237.996,91.604V121.6
	h-83.394V91.604H237.996z"/>
<path style="fill:#FFC10D;" d="M54.594,149.398c-6.012,0-10.925,4.848-10.925,10.925v177.778c0,6.012,4.848,10.925,10.925,10.925
	h283.539c6.012,0,10.925-4.978,10.925-10.925V160.323c0-6.012-4.978-10.925-10.925-10.925H54.594L54.594,149.398z"/>
<path style="fill:#FFFFFF;" d="M132.558,181.333c-10.99,0-19.911,8.986-19.911,19.911c0,10.99,8.986,19.911,19.911,19.911
	s19.911-8.986,19.911-19.911C152.533,190.319,143.612,181.333,132.558,181.333z"/>
<path style="fill:#194F82;" d="M132.558,159.547c-23.014,0-41.697,18.683-41.697,41.697s18.683,41.697,41.697,41.697
	s41.697-18.683,41.697-41.697S155.572,159.547,132.558,159.547z M132.558,221.285c-10.99,0-19.911-8.986-19.911-19.911
	s8.986-19.911,19.911-19.911s19.911,8.986,19.911,19.911C152.533,212.299,143.612,221.285,132.558,221.285z"/>
<path style="fill:#56ACE0;" d="M186.149,298.925c0-9.244-6.077-17.39-15.127-20.04c-24.954-7.37-51.846-7.37-76.8,0
	c-9.115,2.715-15.127,10.731-15.127,20.04v12.671h107.184v-12.671H186.149z"/>
<g>
	<path style="fill:#194F82;" d="M177.228,258.004c-28.962-8.598-60.186-8.598-89.147,0c-18.489,5.43-30.836,21.851-30.836,40.986
		v23.596c0,6.012,4.848,10.925,10.925,10.925h128.97c6.012,0,10.925-4.848,10.925-10.925V298.99
		C207.935,279.855,195.588,263.434,177.228,258.004z M79.03,298.925c0-9.244,6.077-17.39,15.127-20.04
		c24.954-7.37,51.846-7.37,76.8,0c9.051,2.715,15.127,10.731,15.127,20.04v12.671H79.03V298.925z"/>
	<path style="fill:#194F82;" d="M322.166,212.881h-74.149c-6.012,0-10.925-4.848-10.925-10.925c0-6.077,4.848-10.925,10.925-10.925
		h74.214c6.012,0,10.925,4.848,10.925,10.925C333.156,208.032,328.178,212.881,322.166,212.881z"/>
	<path style="fill:#194F82;" d="M322.166,272.743h-74.149c-6.012,0-10.925-4.848-10.925-10.925c0-6.012,4.848-10.925,10.925-10.925
		h74.214c6.012,0,10.925,4.848,10.925,10.925C333.156,267.895,328.178,272.743,322.166,272.743z"/>
	<path style="fill:#194F82;" d="M322.166,332.671h-74.149c-6.012,0-10.925-4.848-10.925-10.925s4.848-10.925,10.925-10.925h74.214
		c6.012,0,10.925,4.848,10.925,10.925S328.178,332.671,322.166,332.671z"/>
</g>
</svg>