<?xml version="1.0" encoding="iso-8859-1"?>
<!-- Uploaded to: SVG Repo, www.svgrepo.com, Generator: SVG Repo Mixer Tools -->
<svg height="800px" width="800px" version="1.1" id="Layer_1" xmlns="http://www.w3.org/2000/svg" xmlns:xlink="http://www.w3.org/1999/xlink" 
	 viewBox="0 0 392.727 392.727" xml:space="preserve">
<path style="fill:#FFFFFF;" d="M269.123,152.533l-40.469,40.533c-7.046,7.046-18.941,1.745-18.618-8.145l1.939-57.083H21.915
	v183.208h31.741c4.202-33.939,27.539-62.513,60.832-72.792c4.784-1.487,10.02,0.517,12.606,4.848l13.446,22.626l13.446-22.626
	c2.521-4.331,7.822-6.335,12.606-4.848c33.293,10.343,56.63,38.853,60.832,72.792h42.667V152.663
	C269.77,152.533,269.446,152.533,269.123,152.533z"/>
<g>
	<path style="fill:#FFC10D;" d="M120.63,183.176c0.517,10.602,9.309,18.941,19.911,18.941s19.394-8.404,19.911-18.941
		c-0.517,10.537-9.244,19.006-19.911,19.006C129.81,202.182,121.147,193.713,120.63,183.176z"/>
	<path style="fill:#FFC10D;" d="M248.242,173.414v115.782h-26.44c-9.568-23.984-29.414-42.925-55.208-50.941
		c-4.784-1.487-10.02,0.517-12.606,4.848l-13.446,22.626l-13.446-22.626c-2.521-4.331-7.822-6.335-12.606-4.848
		c-25.859,8.016-45.64,27.022-55.208,50.941H43.636v-65.228h16.097c6.012,0,10.925-4.848,10.925-10.861s-4.913-10.925-10.925-10.925
		H43.636v-17.713h26.958c6.012,0,10.925-4.848,10.925-10.925c0-6.012-4.848-10.925-10.925-10.925H43.636V149.56h70.788
		c-9.568,7.693-15.709,19.459-15.709,32.646c0,23.014,18.747,41.826,41.826,41.826s41.826-18.747,41.826-41.826
		c-0.065-13.188-6.141-24.954-15.709-32.646H211.2l-1.228,35.297c-0.323,9.891,11.572,15.063,18.618,8.081L248.242,173.414z"/>
</g>
<path style="fill:#56ACE0;" d="M140.541,162.23c-11.055,0-19.911,8.986-19.911,19.911c0,11.055,8.986,19.911,19.911,19.911
	s19.911-8.986,19.911-19.911C160.453,171.152,151.531,162.23,140.541,162.23z"/>
<path style="fill:#194F82;" d="M140.541,140.444c-23.014,0-41.826,18.747-41.826,41.826s18.747,41.826,41.826,41.826
	s41.826-18.747,41.826-41.826C182.238,159.127,163.556,140.444,140.541,140.444z M140.541,202.182
	c-11.055,0-19.911-8.986-19.911-19.911c0-10.99,8.986-19.911,19.911-19.911s19.911,8.986,19.911,19.911
	C160.453,193.196,151.531,202.182,140.541,202.182z"/>
<g>
	<path style="fill:#FFFFFF;" d="M168.081,262.044l-18.166,30.578c-4.267,7.111-14.545,7.111-18.747,0l-18.23-30.578
		c-19.911,9.115-33.875,27.41-37.43,49.002h129.875C201.891,289.455,187.992,271.16,168.081,262.044z"/>
	<path style="fill:#FFFFFF;" d="M132.267,332.832c-2.327,8.792-7.499,22.432-18.941,38.012h65.228
		c-11.378-15.58-16.549-29.22-18.941-38.012H132.267z"/>
</g>
<path style="fill:#56ACE0;" d="M288.97,21.883c-45.123,0-80.549,24.695-81.778,55.143c-0.711,15.968,15.127,31.224,22.82,37.689
	c2.521,2.133,4.008,5.43,3.943,8.727l-1.164,34.521l25.083-25.083c2.392-2.392,5.883-3.556,9.244-3.103
	c6.465,0.905,17.131,2.327,21.85,2.327c45.123,0,81.778-24.76,81.778-55.143C370.812,46.578,334.093,21.883,288.97,21.883z"/>
<g>
	<path style="fill:#194F82;" d="M288.97,0.097c-57.083,0-103.564,34.521-103.564,76.994c0,10.149,2.651,19.846,7.499,28.897H10.925
		C4.913,105.988,0,110.901,0,116.913v204.994c0,6.012,4.848,10.925,10.925,10.925h98.457c-3.556,9.826-11.119,24.824-27.539,41.18
		c-6.853,6.853-2.004,18.618,7.758,18.618h112.743c9.762,0,14.61-11.766,7.758-18.618c-16.356-16.356-23.984-31.354-27.539-41.18
		h98.457c6.012,0,10.925-4.848,10.925-10.925V153.891c55.79-1.164,100.784-35.168,100.784-76.865
		C392.598,34.618,346.182,0.097,288.97,0.097z M113.325,370.844c11.378-15.58,16.549-29.22,18.941-38.012h27.41
		c2.327,8.792,7.499,22.432,18.941,38.012H113.325z M75.572,311.046c3.556-21.527,17.455-39.887,37.43-49.002l18.166,30.578
		c4.267,7.111,14.545,7.111,18.747,0l18.166-30.578c19.911,9.115,33.875,27.41,37.43,49.002H75.572z M270.028,311.046
		L270.028,311.046h-42.667c-4.202-33.939-27.539-62.513-60.832-72.792c-4.784-1.487-10.02,0.517-12.606,4.848l-13.446,22.626
		l-13.446-22.626c-2.521-4.331-7.822-6.335-12.606-4.848c-33.293,10.343-56.63,38.853-60.832,72.792H21.851V127.838
		c0,0,189.802-0.259,190.061,0l-1.939,57.083c-0.323,9.891,11.572,15.063,18.618,8.145l40.469-40.469
		c0.323,0.065,0.646,0.065,0.905,0.065v158.384H270.028z M288.97,132.234c-4.719,0-15.386-1.422-21.85-2.327
		c-3.426-0.453-6.788,0.646-9.244,3.103l-25.083,25.083l1.164-34.521c0.065-3.426-1.293-6.594-3.943-8.727
		c-7.758-6.465-23.467-21.721-22.82-37.689c1.228-30.384,36.719-55.143,81.778-55.143c45.123,0,81.778,24.76,81.778,55.143
		C370.812,107.41,334.093,132.234,288.97,132.234z"/>
	<path style="fill:#194F82;" d="M243.717,66.166h-8.145c-6.012,0-10.925,4.848-10.925,10.925c0,6.077,4.848,10.925,10.925,10.925
		h8.145c6.012,0,10.925-4.848,10.925-10.925C254.642,71.014,249.729,66.166,243.717,66.166z"/>
	<path style="fill:#194F82;" d="M293.107,66.166h-8.145c-6.012,0-10.925,4.848-10.925,10.925c0,6.077,4.848,10.925,10.925,10.925
		h8.145c6.012,0,10.925-4.848,10.925-10.925C304.032,71.014,299.119,66.166,293.107,66.166z"/>
	<path style="fill:#194F82;" d="M342.368,66.166h-8.145c-6.012,0-10.925,4.848-10.925,10.925c0,6.077,4.848,10.925,10.925,10.925
		h8.145c6.012,0,10.925-4.848,10.925-10.925C353.293,71.014,348.38,66.166,342.368,66.166z"/>
</g>
</svg>