<?xml version="1.0" encoding="iso-8859-1"?>
<!-- Uploaded to: SVG Repo, www.svgrepo.com, Generator: SVG Repo Mixer Tools -->
<svg height="800px" width="800px" version="1.1" id="Layer_1" xmlns="http://www.w3.org/2000/svg" xmlns:xlink="http://www.w3.org/1999/xlink" 
	 viewBox="0 0 392.533 392.533" xml:space="preserve">
<path style="fill:#FFC10D;" d="M332.994,21.786H115.265c-6.271,0-11.378,5.107-11.378,11.378v22.497h173.834
	c18.036,0,32.711,14.675,32.711,32.711v226.65h22.497c6.271,0,11.378-5.107,11.378-11.378V33.164
	C344.307,26.893,339.2,21.786,332.994,21.786z"/>
<path style="fill:#FFFFFF;" d="M288.711,88.372c0-6.012-4.848-10.925-10.925-10.925H59.087c-6.012,0-10.925,4.848-10.925,10.925
	v271.451c0,6.012,4.848,10.925,10.925,10.925h218.699c6.012,0,10.925-4.848,10.925-10.925V88.372L288.711,88.372z"/>
<path style="fill:#194F82;" d="M332.994,0H115.265C96.97,0,82.101,14.933,82.101,33.164v22.497H59.087
	c-18.036,0-32.711,14.675-32.711,32.711v271.451c0,18.036,14.675,32.711,32.711,32.711h218.699
	c18.036,0,32.711-14.675,32.711-32.711v-22.95h22.497c18.295,0,33.164-14.933,33.164-33.164V33.164
	C366.093,14.933,351.289,0,332.994,0z M344.307,303.644c0,6.271-5.107,11.378-11.378,11.378h-22.497V88.372
	c0-18.036-14.675-32.711-32.711-32.711h-173.77V33.099c0-6.271,5.107-11.378,11.378-11.378h217.729
	c6.271,0,11.378,5.107,11.378,11.378v270.545H344.307z M277.786,370.747H59.087c-6.012,0-10.925-4.848-10.925-10.925V88.372
	c0-6.012,4.848-10.925,10.925-10.925h218.699c6.012,0,10.925,4.848,10.925,10.925v271.451
	C288.711,365.834,283.733,370.747,277.786,370.747z"/>
<path style="fill:#56ACE0;" d="M255.935,99.297H80.873c-6.012,0-10.925,4.848-10.925,10.925v51.588h23.079
	c6.012,0,10.925,4.848,10.925,10.925c0,6.012-4.848,10.925-10.925,10.925H69.947v21.786h7.434c6.012,0,10.925,4.848,10.925,10.925
	c0,6.012-4.848,10.925-10.925,10.925h-7.434v110.739c0,6.012,4.848,10.925,10.925,10.925h174.998
	c6.012,0,10.925-4.848,10.925-10.925V110.158C266.796,104.145,261.947,99.297,255.935,99.297z"/>
<path style="fill:#FFC10D;" d="M227.103,275.135c0-7.176-3.685-13.705-9.632-16.937c-29.673-16.226-68.396-16.226-98.069,0
	c-5.947,3.232-9.632,9.762-9.632,16.937v40.081h117.269v-40.081H227.103z"/>
<path style="fill:#194F82;" d="M227.879,239.127c-18.036-9.826-38.659-15.063-59.475-15.063s-41.438,5.172-59.475,15.063
	c-12.994,7.046-21.01,20.881-21.01,36.073v51.006c0,6.012,4.848,10.925,10.925,10.925h139.248c6.012,0,10.925-4.848,10.925-10.925
	V275.2C248.889,260.008,240.873,246.174,227.879,239.127z M109.705,275.135c0-7.176,3.685-13.705,9.632-16.937
	c29.673-16.226,68.396-16.226,98.069,0c5.947,3.232,9.632,9.762,9.632,16.937v40.081H109.705V275.135z"/>
<path style="fill:#FFFFFF;" d="M168.469,181.527c12.024,0,21.851-9.826,21.851-21.85c0-12.024-9.826-21.851-21.851-21.851
	c-12.024,0-21.85,9.826-21.85,21.851C146.618,171.701,156.38,181.527,168.469,181.527z"/>
<path style="fill:#194F82;" d="M168.469,203.313c24.048,0,43.636-19.523,43.636-43.636c0-24.048-19.523-43.636-43.636-43.636
	s-43.636,19.523-43.636,43.636S144.356,203.313,168.469,203.313z M168.469,137.826c12.024,0,21.851,9.826,21.851,21.85
	c0,12.024-9.826,21.85-21.851,21.85c-12.024,0-21.85-9.826-21.85-21.85C146.554,147.653,156.38,137.826,168.469,137.826z"/>
</svg>