<?xml version="1.0" encoding="iso-8859-1"?>
<!-- Uploaded to: SVG Repo, www.svgrepo.com, Generator: SVG Repo Mixer Tools -->
<svg height="800px" width="800px" version="1.1" id="Layer_1" xmlns="http://www.w3.org/2000/svg" xmlns:xlink="http://www.w3.org/1999/xlink" 
	 viewBox="0 0 392.533 392.533" xml:space="preserve">
<g>
	<path style="fill:#FFFFFF;" d="M359.822,370.715c6.012,0,10.925-4.848,10.925-10.925v-52.751h-28.251v10.15
		c0,6.012-4.848,10.925-10.925,10.925c-6.012,0-10.925-4.848-10.925-10.925v-10.15h-64.129v10.15
		c0,6.012-4.848,10.925-10.925,10.925c-6.012,0-10.925-4.848-10.925-10.925v-10.15h-28.251v52.751
		c0,6.012,4.848,10.925,10.925,10.925H359.822L359.822,370.715z"/>
	<path style="fill:#FFFFFF;" d="M359.822,246.4H217.277c-6.012,0-10.925,4.848-10.925,10.925v27.992h164.331v-27.992
		C370.747,251.248,365.834,246.4,359.822,246.4z"/>
</g>
<g>
	<path style="fill:#56ACE0;" d="M348.897,269.737v15.515H228.202v-15.515c0-0.84,0.711-1.552,1.552-1.552h117.592
		C348.186,268.186,348.897,268.897,348.897,269.737z"/>
	<path style="fill:#56ACE0;" d="M342.368,307.038h6.465v40.275c0,0.84-0.711,1.552-1.552,1.552H229.754
		c-0.84,0.065-1.552-0.646-1.552-1.487v-40.339h6.465v10.15c0,6.012,4.848,10.861,10.925,10.861c6.077,0,10.861-4.849,10.861-10.861
		v-10.15h64.129v10.15c0,6.012,4.848,10.861,10.861,10.861s10.925-4.849,10.925-10.861V307.038z"/>
	<path style="fill:#56ACE0;" d="M179.976,66.554c0-24.76-20.105-44.8-44.8-44.8s-44.8,20.105-44.8,44.8s20.105,44.8,44.8,44.8
		S179.976,91.313,179.976,66.554z"/>
</g>
<path style="fill:#FFC10D;" d="M232.404,224.614c-12.283-20.622-30.578-37.042-52.752-46.416l-35.297,54.691
	c-4.331,6.659-14.093,6.659-18.295,0l-35.362-54.756c-9.762,4.202-18.683,9.568-26.764,16.097h15.321
	c6.012,0,10.925,4.848,10.925,10.925c0,6.012-4.848,10.925-10.925,10.925H43.248c-4.073,5.624-7.628,11.636-10.667,18.036h16.162
	c6.012,0,10.925,4.848,10.925,10.925c0,6.012-4.848,10.925-10.925,10.925h-23.79c-1.228,5.107-2.069,10.279-2.651,15.58h162.263
	V257.39c0-18.036,14.675-32.711,32.711-32.711h15.127V224.614z"/>
<path style="fill:#FFFFFF;" d="M308.558,197.915c0-0.84-0.711-1.616-1.616-1.616h-36.784c-0.84,0-1.616,0.711-1.616,1.616v26.57
	h40.016V197.915L308.558,197.915z"/>
<g>
	<path style="fill:#194F82;" d="M135.176,133.204c36.719,0,66.586-29.931,66.586-66.586S171.83,0.032,135.176,0.032
		S68.59,29.964,68.59,66.618S98.457,133.204,135.176,133.204z M135.176,21.754c24.76,0,44.8,20.105,44.8,44.8
		s-20.105,44.8-44.8,44.8s-44.8-20.105-44.8-44.8S110.416,21.754,135.176,21.754z"/>
	<path style="fill:#194F82;" d="M359.822,224.614h-29.414v-26.57c0-12.929-10.537-23.402-23.402-23.402h-36.784
		c-12.929,0-23.402,10.537-23.402,23.402v8.21c-16.356-23.855-40.081-42.214-67.943-51.717c-4.719-1.616-9.956,0.259-12.671,4.396
		l-30.966,47.968l-30.901-47.968c-2.715-4.202-7.952-6.012-12.671-4.396h-0.129C36.784,173.156,0,224.485,0,282.343
		c0,6.012,4.848,10.925,10.925,10.925H184.63v66.521c0,18.036,14.675,32.711,32.711,32.711h142.481
		c18.036,0,32.711-14.675,32.711-32.711V257.261C392.533,239.289,377.859,224.614,359.822,224.614z M270.158,196.299h36.784
		c0.84,0,1.616,0.711,1.616,1.616v26.57h-40.016v-26.57l0,0C268.541,197.075,269.188,196.299,270.158,196.299z M184.63,257.261
		v14.158H22.368c0.517-5.301,1.422-10.537,2.651-15.58h23.79c6.012,0,10.925-4.848,10.925-10.925
		c0-6.012-4.848-10.925-10.925-10.925H32.711c3.038-6.335,6.594-12.347,10.667-18.036h36.008c6.012,0,10.925-4.848,10.925-10.925
		c0-6.012-4.848-10.925-10.925-10.925H64c8.016-6.465,17.002-11.895,26.764-16.097l35.297,54.691c4.331,6.659,13.964,6.659,18.295,0
		l35.297-54.691c22.174,9.438,40.469,25.794,52.752,46.416h-15.127C199.305,224.614,184.63,239.289,184.63,257.261z M370.683,359.79
		c0,6.012-4.849,10.925-10.925,10.925H217.277c-6.012,0-10.925-4.978-10.925-10.925v-52.751h28.251v10.15
		c0,6.012,4.848,10.925,10.925,10.925c6.012,0,10.925-4.848,10.925-10.925v-10.15h64.129v10.15c0,6.012,4.848,10.925,10.925,10.925
		c6.012,0,10.925-4.848,10.925-10.925v-10.15h28.251L370.683,359.79L370.683,359.79z M370.747,285.253L370.747,285.253H206.416
		v-27.992c0-6.012,4.848-10.925,10.925-10.925h142.481c6.012,0,10.925,4.848,10.925,10.925V285.253z"/>
</g>
</svg>